<mxfile host="app.diagrams.net" modified="2023-01-30T01:11:37.632Z" agent="5.0 (Windows NT 10.0; Win64; x64) AppleWebKit/537.36 (KHTML, like Gecko) Chrome/109.0.0.0 Safari/537.36" etag="R4LVWdZsCnqiuHnguWqR" version="20.8.13" type="github">
  <diagram name="페이지-1" id="lLnjjKOmOSmIb8eowOzv">
    <mxGraphModel dx="1050" dy="581" grid="1" gridSize="10" guides="1" tooltips="1" connect="1" arrows="1" fold="1" page="1" pageScale="1" pageWidth="827" pageHeight="1169" math="0" shadow="0">
      <root>
        <mxCell id="0" />
        <mxCell id="1" parent="0" />
        <mxCell id="y061HDPplTL_SXDniFcg-1" value="&lt;b&gt;&lt;font style=&quot;font-size: 17px;&quot;&gt;MyMEMO&lt;/font&gt;&lt;/b&gt;" style="shape=process;whiteSpace=wrap;html=1;backgroundOutline=1;" vertex="1" parent="1">
          <mxGeometry x="280" y="40" width="280" height="40" as="geometry" />
        </mxCell>
        <mxCell id="y061HDPplTL_SXDniFcg-39" style="edgeStyle=orthogonalEdgeStyle;rounded=0;orthogonalLoop=1;jettySize=auto;html=1;exitX=0.5;exitY=1;exitDx=0;exitDy=0;entryX=0.5;entryY=0;entryDx=0;entryDy=0;entryPerimeter=0;fontSize=20;" edge="1" parent="1" source="y061HDPplTL_SXDniFcg-2" target="y061HDPplTL_SXDniFcg-14">
          <mxGeometry relative="1" as="geometry" />
        </mxCell>
        <mxCell id="y061HDPplTL_SXDniFcg-2" value="UserDAO.java" style="rounded=1;whiteSpace=wrap;html=1;fontSize=20;fillColor=#ffe6cc;strokeColor=#d79b00;" vertex="1" parent="1">
          <mxGeometry x="160" y="320" width="200" height="40" as="geometry" />
        </mxCell>
        <mxCell id="y061HDPplTL_SXDniFcg-38" style="edgeStyle=orthogonalEdgeStyle;rounded=0;orthogonalLoop=1;jettySize=auto;html=1;exitX=0.5;exitY=1;exitDx=0;exitDy=0;entryX=0.5;entryY=0;entryDx=0;entryDy=0;entryPerimeter=0;fontSize=20;" edge="1" parent="1" source="y061HDPplTL_SXDniFcg-3" target="y061HDPplTL_SXDniFcg-13">
          <mxGeometry relative="1" as="geometry" />
        </mxCell>
        <mxCell id="y061HDPplTL_SXDniFcg-3" value="FeedDAO.java" style="rounded=1;whiteSpace=wrap;html=1;fontSize=20;fillColor=#ffe6cc;strokeColor=#d79b00;" vertex="1" parent="1">
          <mxGeometry x="560" y="320" width="200" height="40" as="geometry" />
        </mxCell>
        <mxCell id="y061HDPplTL_SXDniFcg-34" style="edgeStyle=orthogonalEdgeStyle;rounded=0;orthogonalLoop=1;jettySize=auto;html=1;exitX=0.5;exitY=1;exitDx=0;exitDy=0;entryX=0.5;entryY=0;entryDx=0;entryDy=0;fontSize=20;" edge="1" parent="1" source="y061HDPplTL_SXDniFcg-4" target="y061HDPplTL_SXDniFcg-2">
          <mxGeometry relative="1" as="geometry" />
        </mxCell>
        <mxCell id="y061HDPplTL_SXDniFcg-4" value="loginCheck.jsp" style="rounded=1;whiteSpace=wrap;html=1;fontSize=14;fillColor=#d5e8d4;strokeColor=#82b366;" vertex="1" parent="1">
          <mxGeometry x="40" y="200" width="120" height="40" as="geometry" />
        </mxCell>
        <mxCell id="y061HDPplTL_SXDniFcg-6" value="feed" style="shape=cylinder3;whiteSpace=wrap;html=1;boundedLbl=1;backgroundOutline=1;size=15;fontSize=20;fillColor=#e1d5e7;strokeColor=#9673a6;" vertex="1" parent="1">
          <mxGeometry x="580" y="440" width="160" height="80" as="geometry" />
        </mxCell>
        <mxCell id="y061HDPplTL_SXDniFcg-35" style="edgeStyle=orthogonalEdgeStyle;rounded=0;orthogonalLoop=1;jettySize=auto;html=1;exitX=0.5;exitY=1;exitDx=0;exitDy=0;fontSize=20;entryX=0.5;entryY=0;entryDx=0;entryDy=0;" edge="1" parent="1" source="y061HDPplTL_SXDniFcg-8" target="y061HDPplTL_SXDniFcg-2">
          <mxGeometry relative="1" as="geometry">
            <mxPoint x="260" y="320" as="targetPoint" />
          </mxGeometry>
        </mxCell>
        <mxCell id="y061HDPplTL_SXDniFcg-8" value="signupCheck.jsp" style="rounded=1;whiteSpace=wrap;html=1;fontSize=14;fillColor=#d5e8d4;strokeColor=#82b366;" vertex="1" parent="1">
          <mxGeometry x="200" y="200" width="120" height="40" as="geometry" />
        </mxCell>
        <mxCell id="y061HDPplTL_SXDniFcg-31" style="edgeStyle=orthogonalEdgeStyle;rounded=0;orthogonalLoop=1;jettySize=auto;html=1;exitX=0.5;exitY=1;exitDx=0;exitDy=0;fontSize=20;entryX=0.5;entryY=0;entryDx=0;entryDy=0;" edge="1" parent="1" source="y061HDPplTL_SXDniFcg-9" target="y061HDPplTL_SXDniFcg-2">
          <mxGeometry relative="1" as="geometry">
            <mxPoint x="240" y="320" as="targetPoint" />
          </mxGeometry>
        </mxCell>
        <mxCell id="y061HDPplTL_SXDniFcg-9" value="signoutCheck.jsp" style="rounded=1;whiteSpace=wrap;html=1;fontSize=14;fillColor=#d5e8d4;strokeColor=#82b366;" vertex="1" parent="1">
          <mxGeometry x="360" y="200" width="120" height="40" as="geometry" />
        </mxCell>
        <mxCell id="y061HDPplTL_SXDniFcg-36" style="edgeStyle=orthogonalEdgeStyle;rounded=0;orthogonalLoop=1;jettySize=auto;html=1;exitX=0.5;exitY=1;exitDx=0;exitDy=0;entryX=0.5;entryY=0;entryDx=0;entryDy=0;fontSize=20;" edge="1" parent="1" source="y061HDPplTL_SXDniFcg-10" target="y061HDPplTL_SXDniFcg-3">
          <mxGeometry relative="1" as="geometry" />
        </mxCell>
        <mxCell id="y061HDPplTL_SXDniFcg-10" value="feedCheck.jsp" style="rounded=1;whiteSpace=wrap;html=1;fontSize=14;fillColor=#d5e8d4;strokeColor=#82b366;" vertex="1" parent="1">
          <mxGeometry x="520" y="200" width="120" height="40" as="geometry" />
        </mxCell>
        <mxCell id="y061HDPplTL_SXDniFcg-37" style="edgeStyle=orthogonalEdgeStyle;rounded=0;orthogonalLoop=1;jettySize=auto;html=1;exitX=0.5;exitY=1;exitDx=0;exitDy=0;entryX=0.5;entryY=0;entryDx=0;entryDy=0;fontSize=20;" edge="1" parent="1" source="y061HDPplTL_SXDniFcg-11" target="y061HDPplTL_SXDniFcg-3">
          <mxGeometry relative="1" as="geometry" />
        </mxCell>
        <mxCell id="y061HDPplTL_SXDniFcg-11" value="main.jsp" style="rounded=1;whiteSpace=wrap;html=1;fontSize=14;fillColor=#d5e8d4;strokeColor=#82b366;" vertex="1" parent="1">
          <mxGeometry x="680" y="200" width="120" height="40" as="geometry" />
        </mxCell>
        <mxCell id="y061HDPplTL_SXDniFcg-12" value="mymemo DB" style="rounded=1;whiteSpace=wrap;html=1;fontSize=20;fillColor=#dae8fc;strokeColor=#6c8ebf;" vertex="1" parent="1">
          <mxGeometry x="160" y="560" width="600" height="40" as="geometry" />
        </mxCell>
        <mxCell id="y061HDPplTL_SXDniFcg-46" style="edgeStyle=orthogonalEdgeStyle;rounded=0;orthogonalLoop=1;jettySize=auto;html=1;exitX=0.5;exitY=1;exitDx=0;exitDy=0;exitPerimeter=0;entryX=0.5;entryY=0;entryDx=0;entryDy=0;fontSize=20;" edge="1" parent="1" source="y061HDPplTL_SXDniFcg-13" target="y061HDPplTL_SXDniFcg-12">
          <mxGeometry relative="1" as="geometry" />
        </mxCell>
        <mxCell id="y061HDPplTL_SXDniFcg-13" value="feed" style="shape=cylinder3;whiteSpace=wrap;html=1;boundedLbl=1;backgroundOutline=1;size=15;fontSize=20;fillColor=#e1d5e7;strokeColor=#9673a6;" vertex="1" parent="1">
          <mxGeometry x="580" y="440" width="160" height="80" as="geometry" />
        </mxCell>
        <mxCell id="y061HDPplTL_SXDniFcg-44" style="edgeStyle=orthogonalEdgeStyle;rounded=0;orthogonalLoop=1;jettySize=auto;html=1;exitX=0.5;exitY=1;exitDx=0;exitDy=0;exitPerimeter=0;entryX=0.5;entryY=0;entryDx=0;entryDy=0;fontSize=20;" edge="1" parent="1" source="y061HDPplTL_SXDniFcg-14" target="y061HDPplTL_SXDniFcg-12">
          <mxGeometry relative="1" as="geometry" />
        </mxCell>
        <mxCell id="y061HDPplTL_SXDniFcg-14" value="user" style="shape=cylinder3;whiteSpace=wrap;html=1;boundedLbl=1;backgroundOutline=1;size=15;fontSize=20;fillColor=#fff2cc;strokeColor=#d6b656;" vertex="1" parent="1">
          <mxGeometry x="180" y="440" width="160" height="80" as="geometry" />
        </mxCell>
        <mxCell id="y061HDPplTL_SXDniFcg-25" style="edgeStyle=orthogonalEdgeStyle;rounded=0;orthogonalLoop=1;jettySize=auto;html=1;exitX=0.5;exitY=1;exitDx=0;exitDy=0;entryX=0.5;entryY=0;entryDx=0;entryDy=0;fontSize=20;" edge="1" parent="1" source="y061HDPplTL_SXDniFcg-20" target="y061HDPplTL_SXDniFcg-4">
          <mxGeometry relative="1" as="geometry" />
        </mxCell>
        <mxCell id="y061HDPplTL_SXDniFcg-20" value="login" style="rounded=1;whiteSpace=wrap;html=1;fontSize=14;fillColor=#d5e8d4;strokeColor=#82b366;" vertex="1" parent="1">
          <mxGeometry x="40" y="120" width="120" height="40" as="geometry" />
        </mxCell>
        <mxCell id="y061HDPplTL_SXDniFcg-26" style="edgeStyle=orthogonalEdgeStyle;rounded=0;orthogonalLoop=1;jettySize=auto;html=1;exitX=0.5;exitY=1;exitDx=0;exitDy=0;entryX=0.5;entryY=0;entryDx=0;entryDy=0;fontSize=20;" edge="1" parent="1" source="y061HDPplTL_SXDniFcg-21" target="y061HDPplTL_SXDniFcg-8">
          <mxGeometry relative="1" as="geometry" />
        </mxCell>
        <mxCell id="y061HDPplTL_SXDniFcg-21" value="signup" style="rounded=1;whiteSpace=wrap;html=1;fontSize=14;fillColor=#d5e8d4;strokeColor=#82b366;" vertex="1" parent="1">
          <mxGeometry x="200" y="120" width="120" height="40" as="geometry" />
        </mxCell>
        <mxCell id="y061HDPplTL_SXDniFcg-27" style="edgeStyle=orthogonalEdgeStyle;rounded=0;orthogonalLoop=1;jettySize=auto;html=1;exitX=0.5;exitY=1;exitDx=0;exitDy=0;entryX=0.5;entryY=0;entryDx=0;entryDy=0;fontSize=20;" edge="1" parent="1" source="y061HDPplTL_SXDniFcg-22" target="y061HDPplTL_SXDniFcg-9">
          <mxGeometry relative="1" as="geometry" />
        </mxCell>
        <mxCell id="y061HDPplTL_SXDniFcg-22" value="signout" style="rounded=1;whiteSpace=wrap;html=1;fontSize=14;fillColor=#d5e8d4;strokeColor=#82b366;" vertex="1" parent="1">
          <mxGeometry x="360" y="120" width="120" height="40" as="geometry" />
        </mxCell>
        <mxCell id="y061HDPplTL_SXDniFcg-28" style="edgeStyle=orthogonalEdgeStyle;rounded=0;orthogonalLoop=1;jettySize=auto;html=1;exitX=0.5;exitY=1;exitDx=0;exitDy=0;entryX=0.5;entryY=0;entryDx=0;entryDy=0;fontSize=20;" edge="1" parent="1" source="y061HDPplTL_SXDniFcg-23" target="y061HDPplTL_SXDniFcg-10">
          <mxGeometry relative="1" as="geometry" />
        </mxCell>
        <mxCell id="y061HDPplTL_SXDniFcg-23" value="feedadd" style="rounded=1;whiteSpace=wrap;html=1;fontSize=14;fillColor=#d5e8d4;strokeColor=#82b366;" vertex="1" parent="1">
          <mxGeometry x="520" y="120" width="120" height="40" as="geometry" />
        </mxCell>
        <mxCell id="y061HDPplTL_SXDniFcg-29" style="edgeStyle=orthogonalEdgeStyle;rounded=0;orthogonalLoop=1;jettySize=auto;html=1;exitX=0.5;exitY=1;exitDx=0;exitDy=0;fontSize=20;" edge="1" parent="1" source="y061HDPplTL_SXDniFcg-24" target="y061HDPplTL_SXDniFcg-11">
          <mxGeometry relative="1" as="geometry" />
        </mxCell>
        <mxCell id="y061HDPplTL_SXDniFcg-24" value="index" style="rounded=1;whiteSpace=wrap;html=1;fontSize=14;fillColor=#d5e8d4;strokeColor=#82b366;" vertex="1" parent="1">
          <mxGeometry x="680" y="120" width="120" height="40" as="geometry" />
        </mxCell>
        <mxCell id="y061HDPplTL_SXDniFcg-41" style="edgeStyle=orthogonalEdgeStyle;rounded=0;orthogonalLoop=1;jettySize=auto;html=1;exitX=1;exitY=0.5;exitDx=0;exitDy=0;entryX=0;entryY=0.5;entryDx=0;entryDy=0;fontSize=20;" edge="1" parent="1" source="y061HDPplTL_SXDniFcg-40" target="y061HDPplTL_SXDniFcg-2">
          <mxGeometry relative="1" as="geometry" />
        </mxCell>
        <mxCell id="y061HDPplTL_SXDniFcg-40" value="logout" style="rounded=1;whiteSpace=wrap;html=1;fontSize=14;fillColor=#d5e8d4;strokeColor=#82b366;" vertex="1" parent="1">
          <mxGeometry y="320" width="120" height="40" as="geometry" />
        </mxCell>
      </root>
    </mxGraphModel>
  </diagram>
</mxfile>
